<?xml version="1.0" standalone="no"?>
<!DOCTYPE svg PUBLIC "-//W3C//DTD SVG 20010904//EN"
 "http://www.w3.org/TR/2001/REC-SVG-20010904/DTD/svg10.dtd">
<svg version="1.0" xmlns="http://www.w3.org/2000/svg"
 width="225.000000pt" height="225.000000pt" viewBox="0 0 225.000000 225.000000"
 preserveAspectRatio="xMidYMid meet">

<g transform="translate(0.000000,225.000000) scale(0.100000,-0.100000)"
fill="#000000" stroke="none">
<path d="M952 2099 c-30 -5 -87 -20 -128 -34 -267 -90 -472 -269 -589 -517
-76 -161 -90 -226 -90 -423 0 -148 3 -181 23 -250 83 -289 273 -516 533 -639
162 -77 227 -91 424 -91 197 0 262 14 424 91 208 98 367 257 466 466 76 161
90 226 90 423 0 148 -3 181 -23 250 -83 289 -273 516 -533 639 -149 71 -220
87 -394 91 -82 2 -174 0 -203 -6z m-182 -442 c33 -17 70 -74 70 -109 0 -132
-157 -186 -239 -82 -41 53 -22 150 38 187 31 20 96 22 131 4z m757 -352 c51
-22 91 -61 117 -115 20 -42 21 -64 24 -327 l3 -283 -109 0 -110 0 -4 228 c-3
207 -5 230 -23 262 -29 49 -87 69 -140 49 -45 -17 -73 -51 -85 -105 -5 -21
-10 -128 -10 -236 l0 -198 -115 0 -115 0 0 365 0 365 110 0 110 0 0 -50 0 -49
44 44 c56 55 117 77 203 70 34 -2 79 -11 100 -20z m-707 -360 l0 -365 -115 0
-115 0 0 365 0 365 115 0 115 0 0 -365z"/>
</g>
</svg>
